<svg xmlns="http://www.w3.org/2000/svg" viewBox="0 0 160 160">
  <rect width="160" height="160" rx="80" fill="#d7d2c8"/>
  <circle cx="80" cy="80" r="58" fill="#fff8ec"/>
  <circle cx="57" cy="57" r="14" fill="#8a5b3c"/>
  <circle cx="103" cy="57" r="14" fill="#8a5b3c"/>
  <path d="M55 88c10 20 40 20 50 0" fill="none" stroke="#8a5b3c" stroke-width="8" stroke-linecap="round"/>
  <path d="M64 78c6 5 12 8 16 8s10-3 16-8M80 112c-18-13-25-31-12-41 5-4 9-4 12 0 3-4 7-4 12 0 13 10 6 28-12 41Z" fill="none" stroke="#8a5b3c" stroke-width="6" stroke-linecap="round" stroke-linejoin="round"/>
  <text x="80" y="143" text-anchor="middle" font-family="Arial, sans-serif" font-size="14" font-weight="800" fill="#2b1a12">小熊拉花</text>
</svg>
