<svg xmlns="http://www.w3.org/2000/svg" viewBox="0 0 160 160">
  <rect width="160" height="160" rx="80" fill="#5f806e"/>
  <circle cx="80" cy="80" r="58" fill="#fff8ec"/>
  <path d="M67 112c-18-22-9-50 15-51 19-1 29 14 21 28-7 13-23 10-28-1 19 1 24-16 9-23-15-7-28 5-28 22 0 11 5 20 11 25Z" fill="none" stroke="#5f806e" stroke-width="8" stroke-linecap="round" stroke-linejoin="round"/>
  <path d="M100 66c7-9 16-9 22-2M97 91c8 7 15 15 20 24" fill="none" stroke="#5f806e" stroke-width="6" stroke-linecap="round"/>
  <text x="80" y="143" text-anchor="middle" font-family="Arial, sans-serif" font-size="14" font-weight="800" fill="#fff8ec">海马拉花</text>
</svg>
