<svg xmlns="http://www.w3.org/2000/svg" viewBox="0 0 160 160"><rect width="160" height="160" rx="80" fill="#4fae8a"/><circle cx="80" cy="80" r="58" fill="#fff8ec"/><path d="M80 118c-21-18-32-38-30-56 1-11 9-18 20-12 4 2 7 5 10 9 3-4 7-7 11-9 11-6 19 1 20 12 2 18-9 38-31 56Z" fill="none" stroke="#4fae8a" stroke-width="9" stroke-linejoin="round"/><path d="M80 116V57M62 74c8 2 15 7 18 14M98 74c-8 2-15 7-18 14" fill="none" stroke="#4fae8a" stroke-width="6" stroke-linecap="round"/><text x="80" y="143" text-anchor="middle" font-family="Arial, sans-serif" font-size="14" font-weight="800" fill="#fff8ec">郁金香</text></svg>
