<svg xmlns="http://www.w3.org/2000/svg" viewBox="0 0 160 160"><rect width="160" height="160" rx="80" fill="#8a5b3c"/><circle cx="80" cy="80" r="58" fill="#f5d189"/><path d="M81 116c-30-7-37-34-18-47 11-8 25-5 33 4 9 10 6 27-12 31 12-12 12-26 1-32-9-5-22 0-25 11-5 16 8 29 21 33Z" fill="none" stroke="#fff8ec" stroke-width="8" stroke-linecap="round" stroke-linejoin="round"/><path d="M48 104c11 0 22 4 32 12M111 71c-5-13-18-20-33-17" fill="none" stroke="#fff8ec" stroke-width="6" stroke-linecap="round"/><text x="80" y="143" text-anchor="middle" font-family="Arial, sans-serif" font-size="14" font-weight="800" fill="#fff8ec">玫瑰拉花</text></svg>
